<svg xmlns="http://www.w3.org/2000/svg" xmlns:xlink="http://www.w3.org/1999/xlink" width="312" zoomAndPan="magnify" viewBox="0 0 234 149.249994" height="199" preserveAspectRatio="xMidYMid meet" version="1.0"><defs><clipPath id="7eaecb3ad6"><path d="M 0.585938 0 L 232.636719 0 L 232.636719 148.503906 L 0.585938 148.503906 Z M 0.585938 0 " clip-rule="nonzero"/></clipPath></defs><g clip-path="url(#7eaecb3ad6)"><path fill="#ffffff" d="M 110.6875 41.085938 L 93.457031 2.714844 L 64.238281 2.714844 L 0.550781 144.859375 L 103.675781 144.859375 L 103.675781 120.796875 L 40.316406 120.796875 L 65.628906 63.011719 L 78.824219 32.722656 C 82.726562 41.59375 107.714844 105.746094 115.9375 118.007812 L 115.9375 118.148438 C 127.597656 135.847656 148.082031 148.109375 178.878906 148.109375 C 199.367188 148.109375 218.179688 141.421875 232.8125 127.113281 L 214.648438 108.625 C 205.3125 117.960938 191.328125 122.933594 178.925781 122.933594 C 143.808594 122.933594 130.292969 98.40625 129.964844 74.949219 C 129.828125 51.164062 144.550781 25.710938 178.925781 25.710938 C 191.375 25.710938 203.917969 29.890625 213.253906 39.085938 L 231.136719 21.855469 C 216.507812 7.359375 198.15625 0.0664062 178.878906 0.0664062 C 143.625 0.0664062 121.28125 17.953125 110.6875 41.085938 Z M 110.6875 41.085938 " fill-opacity="1" fill-rule="nonzero"/></g></svg>